<svg width="44" height="40" viewBox="0 0 44 40" fill="none" xmlns="http://www.w3.org/2000/svg">
<mask id="mask0_36_133" style="mask-type:alpha" maskUnits="userSpaceOnUse" x="0" y="0" width="44" height="40">
<rect width="44" height="40" fill="#D9D9D9"/>
</mask>
<g mask="url(#mask0_36_133)">
<path d="M10.725 28.5C12.2833 27.4167 14.025 26.5625 15.95 25.9375C17.875 25.3125 19.8917 25 22 25C24.1083 25 26.125 25.3125 28.05 25.9375C29.975 26.5625 31.7167 27.4167 33.275 28.5C34.3444 27.3611 35.1771 26.0695 35.7729 24.625C36.3687 23.1806 36.6667 21.6389 36.6667 20C36.6667 16.3056 35.2382 13.1597 32.3812 10.5625C29.5243 7.96529 26.0639 6.66668 22 6.66668C17.9361 6.66668 14.4757 7.96529 11.6187 10.5625C8.7618 13.1597 7.33332 16.3056 7.33332 20C7.33332 21.6389 7.63124 23.1806 8.22707 24.625C8.82291 26.0695 9.65555 27.3611 10.725 28.5ZM22 21.6667C20.1972 21.6667 18.6771 21.1042 17.4396 19.9792C16.2021 18.8542 15.5833 17.4722 15.5833 15.8333C15.5833 14.1945 16.2021 12.8125 17.4396 11.6875C18.6771 10.5625 20.1972 10 22 10C23.8028 10 25.3229 10.5625 26.5604 11.6875C27.7979 12.8125 28.4167 14.1945 28.4167 15.8333C28.4167 17.4722 27.7979 18.8542 26.5604 19.9792C25.3229 21.1042 23.8028 21.6667 22 21.6667ZM22 36.6667C19.4639 36.6667 17.0805 36.2292 14.85 35.3542C12.6194 34.4792 10.6792 33.2917 9.02916 31.7917C7.37916 30.2917 6.07291 28.5278 5.11041 26.5C4.14791 24.4722 3.66666 22.3056 3.66666 20C3.66666 17.6945 4.14791 15.5278 5.11041 13.5C6.07291 11.4722 7.37916 9.70834 9.02916 8.20834C10.6792 6.70834 12.6194 5.52084 14.85 4.64584C17.0805 3.77084 19.4639 3.33334 22 3.33334C24.5361 3.33334 26.9194 3.77084 29.15 4.64584C31.3805 5.52084 33.3208 6.70834 34.9708 8.20834C36.6208 9.70834 37.9271 11.4722 38.8896 13.5C39.8521 15.5278 40.3333 17.6945 40.3333 20C40.3333 22.3056 39.8521 24.4722 38.8896 26.5C37.9271 28.5278 36.6208 30.2917 34.9708 31.7917C33.3208 33.2917 31.3805 34.4792 29.15 35.3542C26.9194 36.2292 24.5361 36.6667 22 36.6667ZM22 33.3333C23.6194 33.3333 25.1472 33.1181 26.5833 32.6875C28.0194 32.257 29.3333 31.6389 30.525 30.8333C29.3333 30.0278 28.0194 29.4097 26.5833 28.9792C25.1472 28.5486 23.6194 28.3333 22 28.3333C20.3805 28.3333 18.8528 28.5486 17.4167 28.9792C15.9805 29.4097 14.6667 30.0278 13.475 30.8333C14.6667 31.6389 15.9805 32.257 17.4167 32.6875C18.8528 33.1181 20.3805 33.3333 22 33.3333ZM22 18.3333C22.7944 18.3333 23.4514 18.0972 23.9708 17.625C24.4903 17.1528 24.75 16.5556 24.75 15.8333C24.75 15.1111 24.4903 14.5139 23.9708 14.0417C23.4514 13.5695 22.7944 13.3333 22 13.3333C21.2055 13.3333 20.5486 13.5695 20.0292 14.0417C19.5097 14.5139 19.25 15.1111 19.25 15.8333C19.25 16.5556 19.5097 17.1528 20.0292 17.625C20.5486 18.0972 21.2055 18.3333 22 18.3333Z" fill="#1C1B1F"/>
</g>
</svg>
